<svg width="92" height="20" viewBox="0 0 92 20" fill="none" xmlns="http://www.w3.org/2000/svg">
<path d="M2.5 19.1666L2.5 0.999969" stroke="#E9E9E9"/>
<path d="M7.5 19.1667V4.99997" stroke="#E9E9E9"/>
<path d="M12.5 19.1667L12.5 8.99997" stroke="#E9E9E9"/>
<path d="M17.5 19.1667L17.5 13" stroke="#E9E9E9"/>
<path d="M35.2495 6.55127C34.2297 6.55127 33.4235 6.89193 32.8311 7.57324C32.2428 8.25033 31.9487 9.1792 31.9487 10.3599C31.9487 11.5744 32.2323 12.5138 32.7993 13.1782C33.3706 13.8384 34.1831 14.1685 35.2368 14.1685C35.8843 14.1685 36.6227 14.0521 37.4521 13.8193V14.7651C36.8089 15.0063 36.0155 15.127 35.0718 15.127C33.7049 15.127 32.6491 14.7122 31.9043 13.8828C31.1637 13.0534 30.7935 11.8748 30.7935 10.3472C30.7935 9.39079 30.9712 8.5529 31.3267 7.8335C31.6864 7.1141 32.2026 6.55973 32.8755 6.17041C33.5526 5.78109 34.3481 5.58643 35.2622 5.58643C36.2355 5.58643 37.0861 5.76416 37.814 6.11963L37.3569 7.04639C36.6545 6.71631 35.952 6.55127 35.2495 6.55127ZM42.5557 15.127C42.1029 15.127 41.6882 15.0444 41.3115 14.8794C40.9391 14.7101 40.626 14.452 40.3721 14.105H40.2959C40.3467 14.5112 40.3721 14.8963 40.3721 15.2603V18.123H39.3184V8.04297H40.1753L40.3213 8.99512H40.3721C40.6429 8.61426 40.9582 8.33919 41.3179 8.16992C41.6776 8.00065 42.0902 7.91602 42.5557 7.91602C43.4782 7.91602 44.1891 8.23128 44.6885 8.86182C45.1921 9.49235 45.4438 10.3768 45.4438 11.5151C45.4438 12.6577 45.1878 13.5464 44.6758 14.1812C44.168 14.8117 43.4613 15.127 42.5557 15.127ZM42.4033 8.81104C41.6924 8.81104 41.1782 9.00781 40.8608 9.40137C40.5435 9.79492 40.3805 10.4212 40.3721 11.2803V11.5151C40.3721 12.4927 40.535 13.193 40.8608 13.6162C41.1867 14.0352 41.7093 14.2446 42.4287 14.2446C43.0296 14.2446 43.4993 14.0013 43.8379 13.5146C44.1807 13.028 44.3521 12.3573 44.3521 11.5024C44.3521 10.6349 44.1807 9.97054 43.8379 9.50928C43.4993 9.04378 43.0212 8.81104 42.4033 8.81104ZM51.5693 15L51.3599 14.0098H51.3091C50.9621 14.4456 50.6151 14.7419 50.2681 14.8984C49.9253 15.0508 49.4958 15.127 48.9795 15.127C48.2897 15.127 47.748 14.9492 47.3545 14.5938C46.9652 14.2383 46.7705 13.7326 46.7705 13.0767C46.7705 11.6717 47.894 10.9354 50.1411 10.8677L51.3218 10.8296V10.3979C51.3218 9.85205 51.2033 9.45003 50.9663 9.19189C50.7336 8.92952 50.359 8.79834 49.8428 8.79834C49.263 8.79834 48.6071 8.97607 47.875 9.33154L47.5513 8.52539C47.894 8.33919 48.2686 8.1932 48.6748 8.0874C49.0853 7.98161 49.4958 7.92871 49.9062 7.92871C50.7357 7.92871 51.3493 8.11279 51.7471 8.48096C52.1491 8.84912 52.3501 9.43945 52.3501 10.252V15H51.5693ZM49.189 14.2573C49.8449 14.2573 50.359 14.0775 50.7314 13.7178C51.1081 13.3581 51.2964 12.8545 51.2964 12.207V11.5786L50.2427 11.623C49.4048 11.6527 48.7996 11.7839 48.4272 12.0166C48.0591 12.2451 47.875 12.6027 47.875 13.0894C47.875 13.4702 47.9893 13.7601 48.2178 13.959C48.4505 14.1579 48.7743 14.2573 49.189 14.2573ZM60.1704 9.78857C60.1704 10.2414 60.0392 10.5863 59.7769 10.8232C59.5187 11.056 59.1548 11.2126 58.6851 11.293V11.3501C59.2775 11.4305 59.7091 11.604 59.98 11.8706C60.255 12.1372 60.3926 12.5054 60.3926 12.9751C60.3926 13.6226 60.1535 14.1219 59.6753 14.4731C59.2013 14.8244 58.5073 15 57.5933 15H54.5273V8.04297H57.5806C59.3071 8.04297 60.1704 8.62484 60.1704 9.78857ZM59.3389 12.9053C59.3389 12.5286 59.195 12.2557 58.9072 12.0864C58.6237 11.9129 58.1519 11.8262 57.4917 11.8262H55.5811V14.1177H57.5171C58.7316 14.1177 59.3389 13.7135 59.3389 12.9053ZM59.1421 9.89014C59.1421 9.5516 59.0109 9.3125 58.7485 9.17285C58.4904 9.02897 58.0968 8.95703 57.5679 8.95703H55.5811V10.9185H57.3647C58.0164 10.9185 58.4756 10.8381 58.7422 10.6772C59.0088 10.5164 59.1421 10.2541 59.1421 9.89014ZM62.9824 8.04297V10.9565H66.8799V8.04297H67.9336V15H66.8799V11.8643H62.9824V15H61.9287V8.04297H62.9824ZM71.1582 8.04297V12.4546L71.1138 13.6099L71.0947 13.9717L74.8589 8.04297H76.1729V15H75.189V10.7471L75.208 9.90918L75.2397 9.08398L71.4819 15H70.168V8.04297H71.1582ZM83.0981 8.94434H80.8384V15H79.7847V8.94434H77.5503V8.04297H83.0981V8.94434ZM85.5293 10.9185H87.6748C89.4521 10.9185 90.3408 11.5723 90.3408 12.8799C90.3408 13.5654 90.1081 14.0902 89.6426 14.4541C89.1813 14.818 88.5042 15 87.6113 15H84.4756V8.04297H85.5293V10.9185ZM85.5293 11.8262V14.1177H87.5605C88.1191 14.1177 88.5465 14.0203 88.8428 13.8257C89.139 13.631 89.2871 13.3369 89.2871 12.9434C89.2871 12.5583 89.1496 12.2769 88.8745 12.0991C88.6037 11.9172 88.1551 11.8262 87.5288 11.8262H85.5293Z" fill="#E9E9E9"/>
</svg>
