<svg width="101" height="20" viewBox="0 0 101 20" fill="none" xmlns="http://www.w3.org/2000/svg">
<g clip-path="url(#clip0)">
<path d="M18.4531 2.85719C16.3915 0.791068 13.0454 0.787389 10.9793 2.84896C10.9766 2.85169 10.9738 2.85446 10.9711 2.85719L10.0342 3.79409L9.0976 2.85752C7.06748 0.755434 3.71771 0.697022 1.61559 2.72713C-0.486536 4.75724 -0.544906 8.10702 1.4852 10.2091C1.52778 10.2533 1.57115 10.2966 1.61526 10.3392L10.0342 18.7581L18.4531 10.3392C20.5156 8.27163 20.5156 4.92475 18.4531 2.85719ZM17.9855 9.87157L10.0342 17.8229L2.08288 9.87157C0.275588 8.06134 0.277986 5.12876 2.08817 3.3215C2.95567 2.45541 4.1311 1.96856 5.35692 1.96757C6.58535 1.9641 7.76388 2.45335 8.62865 3.3258L10.0342 4.72934L11.4394 3.32448C13.2428 1.51681 16.1701 1.51338 17.9778 3.31679C17.9803 3.31935 17.9829 3.32192 17.9855 3.32448C19.7904 5.13368 19.7904 8.06241 17.9855 9.87157Z" fill="#E9E9E9"/>
</g>
<path d="M31.2886 5.71973H32.2979V10.8804C32.2979 11.8325 32.2682 12.6937 32.209 13.4639H32.2598L37.4648 5.71973H38.6455V15H37.6299V9.89014C37.6299 9.03955 37.6659 8.14665 37.7378 7.21143H37.6807L32.4692 15H31.2886V5.71973ZM42.3589 10.9312C43.675 10.9312 44.333 10.5672 44.333 9.83936C44.333 9.15381 43.7998 8.81104 42.7334 8.81104C42.4076 8.81104 42.1113 8.84066 41.8447 8.8999C41.5781 8.95915 41.229 9.07764 40.7974 9.25537L40.4229 8.39844C41.1423 8.07682 41.9272 7.91602 42.7778 7.91602C43.5776 7.91602 44.2082 8.08105 44.6694 8.41113C45.1307 8.73698 45.3613 9.18343 45.3613 9.75049C45.3613 10.5291 44.9276 11.0391 44.0601 11.2803V11.3311C44.5933 11.4876 44.9826 11.7119 45.228 12.0039C45.4735 12.2917 45.5962 12.6535 45.5962 13.0894C45.5962 13.7326 45.3359 14.234 44.8154 14.5938C44.2992 14.9492 43.584 15.127 42.6699 15.127C41.667 15.127 40.8926 14.9767 40.3467 14.6763V13.7114C41.1211 14.0754 41.904 14.2573 42.6953 14.2573C43.3047 14.2573 43.7638 14.1536 44.0728 13.9463C44.3859 13.7347 44.5425 13.4321 44.5425 13.0386C44.5425 12.2303 43.8844 11.8262 42.5684 11.8262H41.6035V10.9312H42.3589ZM46.9546 10.8296C46.9546 9.30615 47.1789 8.11914 47.6274 7.26855C48.076 6.41374 48.7869 5.88053 49.7603 5.66895C50.9705 5.41081 52.0369 5.20133 52.9595 5.04053L53.1562 5.96729C51.6878 6.21273 50.6383 6.40739 50.0078 6.55127C49.3942 6.69092 48.9329 7.021 48.624 7.5415C48.3193 8.06201 48.1522 8.77083 48.1226 9.66797H48.1987C48.4611 9.3125 48.7996 9.0332 49.2144 8.83008C49.6291 8.62695 50.0628 8.52539 50.5156 8.52539C51.3704 8.52539 52.0369 8.80257 52.5151 9.35693C52.9933 9.9113 53.2324 10.6794 53.2324 11.6611C53.2324 12.7487 52.9552 13.5993 52.4009 14.2129C51.8465 14.8223 51.0742 15.127 50.084 15.127C49.1064 15.127 48.3405 14.7524 47.7861 14.0034C47.2318 13.2544 46.9546 12.1965 46.9546 10.8296ZM50.1792 14.2446C51.4699 14.2446 52.1152 13.4215 52.1152 11.7754C52.1152 10.2054 51.5291 9.42041 50.3569 9.42041C50.0353 9.42041 49.7243 9.48812 49.4238 9.62354C49.1276 9.75472 48.8547 9.93034 48.605 10.1504C48.3595 10.3704 48.1691 10.5968 48.0337 10.8296C48.0337 11.9425 48.2093 12.791 48.5605 13.375C48.9118 13.9548 49.4513 14.2446 50.1792 14.2446ZM58.3105 15.127C57.8577 15.127 57.443 15.0444 57.0664 14.8794C56.694 14.7101 56.3809 14.452 56.127 14.105H56.0508C56.1016 14.5112 56.127 14.8963 56.127 15.2603V18.123H55.0732V8.04297H55.9302L56.0762 8.99512H56.127C56.3978 8.61426 56.7131 8.33919 57.0728 8.16992C57.4325 8.00065 57.8451 7.91602 58.3105 7.91602C59.2331 7.91602 59.944 8.23128 60.4434 8.86182C60.9469 9.49235 61.1987 10.3768 61.1987 11.5151C61.1987 12.6577 60.9427 13.5464 60.4307 14.1812C59.9229 14.8117 59.2161 15.127 58.3105 15.127ZM58.1582 8.81104C57.4473 8.81104 56.9331 9.00781 56.6157 9.40137C56.2983 9.79492 56.1354 10.4212 56.127 11.2803V11.5151C56.127 12.4927 56.2899 13.193 56.6157 13.6162C56.9416 14.0352 57.4642 14.2446 58.1836 14.2446C58.7845 14.2446 59.2542 14.0013 59.5928 13.5146C59.9355 13.028 60.1069 12.3573 60.1069 11.5024C60.1069 10.6349 59.9355 9.97054 59.5928 9.50928C59.2542 9.04378 58.776 8.81104 58.1582 8.81104ZM67.3242 15L67.1147 14.0098H67.064C66.717 14.4456 66.37 14.7419 66.0229 14.8984C65.6802 15.0508 65.2507 15.127 64.7344 15.127C64.0446 15.127 63.5029 14.9492 63.1094 14.5938C62.7201 14.2383 62.5254 13.7326 62.5254 13.0767C62.5254 11.6717 63.6489 10.9354 65.896 10.8677L67.0767 10.8296V10.3979C67.0767 9.85205 66.9582 9.45003 66.7212 9.19189C66.4884 8.92952 66.1139 8.79834 65.5977 8.79834C65.0179 8.79834 64.362 8.97607 63.6299 9.33154L63.3062 8.52539C63.6489 8.33919 64.0234 8.1932 64.4297 8.0874C64.8402 7.98161 65.2507 7.92871 65.6611 7.92871C66.4906 7.92871 67.1042 8.11279 67.502 8.48096C67.904 8.84912 68.105 9.43945 68.105 10.252V15H67.3242ZM64.9438 14.2573C65.5998 14.2573 66.1139 14.0775 66.4863 13.7178C66.863 13.3581 67.0513 12.8545 67.0513 12.207V11.5786L65.9976 11.623C65.1597 11.6527 64.5545 11.7839 64.1821 12.0166C63.814 12.2451 63.6299 12.6027 63.6299 13.0894C63.6299 13.4702 63.7441 13.7601 63.9727 13.959C64.2054 14.1579 64.5291 14.2573 64.9438 14.2573ZM71.3359 8.04297V10.9565H75.2334V8.04297H76.2871V15H75.2334V11.8643H71.3359V15H70.2822V8.04297H71.3359ZM79.5752 8.04297V10.9565H83.4727V8.04297H84.5264V15H83.4727V11.8643H79.5752V15H78.5215V8.04297H79.5752ZM92.7656 11.5151C92.7656 12.6493 92.48 13.5358 91.9087 14.1748C91.3374 14.8096 90.5482 15.127 89.541 15.127C88.9189 15.127 88.3667 14.981 87.8843 14.689C87.4019 14.397 87.0295 13.978 86.7671 13.4321C86.5047 12.8862 86.3735 12.2472 86.3735 11.5151C86.3735 10.381 86.6571 9.4987 87.2241 8.86816C87.7912 8.2334 88.5783 7.91602 89.5854 7.91602C90.5588 7.91602 91.3311 8.23975 91.9023 8.88721C92.4779 9.53467 92.7656 10.4106 92.7656 11.5151ZM87.4653 11.5151C87.4653 12.4038 87.6431 13.0809 87.9985 13.5464C88.354 14.0119 88.8766 14.2446 89.5664 14.2446C90.2562 14.2446 90.7788 14.014 91.1343 13.5527C91.494 13.0872 91.6738 12.408 91.6738 11.5151C91.6738 10.6307 91.494 9.95996 91.1343 9.50293C90.7788 9.04167 90.252 8.81104 89.5537 8.81104C88.8639 8.81104 88.3434 9.03743 87.9922 9.49023C87.641 9.94303 87.4653 10.618 87.4653 11.5151ZM97.5581 15.127C96.5298 15.127 95.7173 14.8138 95.1206 14.1875C94.5282 13.5612 94.2319 12.6916 94.2319 11.5786C94.2319 10.4572 94.507 9.56641 95.0571 8.90625C95.6115 8.24609 96.3542 7.91602 97.2852 7.91602C98.1569 7.91602 98.8467 8.20378 99.3545 8.7793C99.8623 9.35059 100.116 10.106 100.116 11.0454V11.7119H95.3237C95.3449 12.5286 95.5501 13.1486 95.9395 13.5718C96.333 13.995 96.8853 14.2065 97.5962 14.2065C98.3452 14.2065 99.0858 14.05 99.8179 13.7368V14.6763C99.4455 14.8371 99.0921 14.9513 98.7578 15.019C98.4277 15.091 98.0278 15.127 97.5581 15.127ZM97.2725 8.79834C96.7139 8.79834 96.2674 8.98031 95.9331 9.34424C95.603 9.70817 95.4084 10.2118 95.3491 10.855H98.9863C98.9863 10.1906 98.8382 9.68278 98.542 9.33154C98.2458 8.97607 97.8226 8.79834 97.2725 8.79834Z" fill="#E9E9E9"/>
<defs>
<clipPath id="clip0">
<rect width="20" height="20" fill="white"/>
</clipPath>
</defs>
</svg>
