<svg width="20" height="20" viewBox="0 0 20 20" fill="none" xmlns="http://www.w3.org/2000/svg">
<g clip-path="url(#clip0)">
<path d="M18.4531 2.85719C16.3915 0.791068 13.0454 0.787389 10.9793 2.84896C10.9766 2.85169 10.9738 2.85446 10.9711 2.85719L10.0342 3.79409L9.0976 2.85752C7.06748 0.755434 3.71771 0.697022 1.61559 2.72713C-0.486536 4.75724 -0.544906 8.10702 1.4852 10.2091C1.52778 10.2533 1.57115 10.2966 1.61526 10.3392L10.0342 18.7581L18.4531 10.3392C20.5156 8.27163 20.5156 4.92475 18.4531 2.85719ZM17.9855 9.87157L10.0342 17.8229L2.08288 9.87157C0.275588 8.06134 0.277986 5.12876 2.08817 3.3215C2.95567 2.45541 4.1311 1.96856 5.35692 1.96757C6.58535 1.9641 7.76388 2.45335 8.62865 3.3258L10.0342 4.72934L11.4394 3.32448C13.2428 1.51681 16.1701 1.51338 17.9778 3.31679C17.9803 3.31935 17.9829 3.32192 17.9855 3.32448C19.7904 5.13368 19.7904 8.06241 17.9855 9.87157Z" fill="#E9E9E9"/>
</g>
<defs>
<clipPath id="clip0">
<rect width="20" height="20" fill="white"/>
</clipPath>
</defs>
</svg>
