<svg width="69" height="21" viewBox="0 0 69 21" fill="none" xmlns="http://www.w3.org/2000/svg">
<circle cx="10" cy="6.5" r="5" stroke="#E9E9E9"/>
<path d="M17 19C17 15.134 13.866 12 10 12C6.13401 12 3 15.134 3 19" stroke="#E9E9E9"/>
<path d="M31.2759 6.71973H33.8975C35.1289 6.71973 36.0197 6.90381 36.5698 7.27197C37.12 7.64014 37.395 8.22201 37.395 9.01758C37.395 9.56771 37.2406 10.0226 36.9316 10.3823C36.627 10.7378 36.1805 10.9684 35.5923 11.0742V11.1377C37.0015 11.3789 37.7061 12.1195 37.7061 13.3594C37.7061 14.1888 37.4246 14.8363 36.8618 15.3018C36.3032 15.7673 35.5203 16 34.5132 16H31.2759V6.71973ZM32.355 10.6934H34.1323C34.894 10.6934 35.4421 10.5749 35.7764 10.3379C36.1107 10.0967 36.2778 9.69255 36.2778 9.12549C36.2778 8.60498 36.0916 8.23047 35.7192 8.00195C35.3468 7.76921 34.7544 7.65283 33.9419 7.65283H32.355V10.6934ZM32.355 11.6074V15.0796H34.291C35.04 15.0796 35.6029 14.9357 35.9795 14.6479C36.3604 14.356 36.5508 13.901 36.5508 13.2832C36.5508 12.7077 36.3561 12.2845 35.9668 12.0137C35.5817 11.7428 34.9935 11.6074 34.2021 11.6074H32.355ZM45.5518 12.5151C45.5518 13.6493 45.2661 14.5358 44.6948 15.1748C44.1235 15.8096 43.3343 16.127 42.3271 16.127C41.7051 16.127 41.1528 15.981 40.6704 15.689C40.188 15.397 39.8156 14.978 39.5532 14.4321C39.2909 13.8862 39.1597 13.2472 39.1597 12.5151C39.1597 11.381 39.4432 10.4987 40.0103 9.86816C40.5773 9.2334 41.3644 8.91602 42.3716 8.91602C43.3449 8.91602 44.1172 9.23975 44.6885 9.88721C45.264 10.5347 45.5518 11.4106 45.5518 12.5151ZM40.2515 12.5151C40.2515 13.4038 40.4292 14.0809 40.7847 14.5464C41.1401 15.0119 41.6628 15.2446 42.3525 15.2446C43.0423 15.2446 43.5649 15.014 43.9204 14.5527C44.2801 14.0872 44.46 13.408 44.46 12.5151C44.46 11.6307 44.2801 10.96 43.9204 10.5029C43.5649 10.0417 43.0381 9.81104 42.3398 9.81104C41.6501 9.81104 41.1296 10.0374 40.7783 10.4902C40.4271 10.943 40.2515 11.618 40.2515 12.5151ZM48.3955 9.04297V13.4546L48.3511 14.6099L48.332 14.9717L52.0962 9.04297H53.4102V16H52.4263V11.7471L52.4453 10.9092L52.4771 10.084L48.7192 16H47.4053V9.04297H48.3955ZM50.3823 8.12256C49.5994 8.12256 49.0282 7.97233 48.6685 7.67188C48.3088 7.36719 48.1077 6.86784 48.0654 6.17383H49.0557C49.0938 6.61393 49.208 6.92074 49.3984 7.09424C49.5931 7.26774 49.9295 7.35449 50.4077 7.35449C50.8436 7.35449 51.1652 7.26139 51.3726 7.0752C51.5841 6.889 51.7132 6.58854 51.7598 6.17383H52.7563C52.7056 6.84245 52.4919 7.33545 52.1152 7.65283C51.7386 7.96598 51.161 8.12256 50.3823 8.12256ZM60.3354 9.94434H58.0757V16H57.022V9.94434H54.7876V9.04297H60.3354V9.94434ZM62.7031 9.04297V13.4546L62.6587 14.6099L62.6396 14.9717L66.4038 9.04297H67.7178V16H66.7339V11.7471L66.7529 10.9092L66.7847 10.084L63.0269 16H61.7129V9.04297H62.7031Z" fill="#E9E9E9"/>
</svg>
