<svg width="681" height="197" viewBox="0 0 681 197" fill="none" xmlns="http://www.w3.org/2000/svg">
<path d="M24.0391 123.113H88.2344V81.9102H106.516V182.738H88.2344V141.535H24.0391V182.738H5.75781V81.9102H24.0391V123.113Z" fill="#0E0E0E"/>
<path d="M342.133 182.738H276.18C274.492 182.738 272.664 182.551 270.695 182.176C268.773 181.754 266.852 181.121 264.93 180.277C263.055 179.434 261.25 178.355 259.516 177.043C257.781 175.684 256.234 174.066 254.875 172.191C253.562 170.27 252.508 168.066 251.711 165.582C250.914 163.051 250.516 160.215 250.516 157.074V107.574C250.516 105.887 250.703 104.082 251.078 102.16C251.5 100.191 252.133 98.2695 252.977 96.3945C253.82 94.4727 254.922 92.6445 256.281 90.9102C257.641 89.1758 259.258 87.6523 261.133 86.3398C263.055 84.9805 265.258 83.9023 267.742 83.1055C270.227 82.3086 273.039 81.9102 276.18 81.9102H342.133V100.191H276.18C273.789 100.191 271.961 100.824 270.695 102.09C269.43 103.355 268.797 105.23 268.797 107.715V157.074C268.797 159.418 269.43 161.246 270.695 162.559C272.008 163.824 273.836 164.457 276.18 164.457H342.133V182.738Z" fill="#0E0E0E"/>
<path d="M465.109 182.738H439.164L398.031 141.535H385.164V123.113H398.031L439.164 81.9102H465.109L413.289 132.324L465.109 182.738ZM377.852 182.738H359.57V81.9102H377.852V182.738Z" fill="#0E0E0E"/>
<path d="M558.766 141.535H501.039V123.113H558.766V141.535ZM566.992 182.738H501.039C498.508 182.738 495.742 182.293 492.742 181.402C489.742 180.512 486.953 179.059 484.375 177.043C481.844 174.98 479.711 172.332 477.977 169.098C476.289 165.816 475.445 161.809 475.445 157.074V91.1211C475.445 89.8555 475.68 88.6602 476.148 87.5352C476.617 86.4102 477.25 85.4258 478.047 84.582C478.891 83.7383 479.875 83.082 481 82.6133C482.125 82.1445 483.344 81.9102 484.656 81.9102H566.992V100.191H493.727V157.074C493.727 159.465 494.359 161.293 495.625 162.559C496.891 163.824 498.742 164.457 501.18 164.457H566.992V182.738Z" fill="#0E0E0E"/>
<path d="M680.758 115.66C680.758 119.832 680.219 123.559 679.141 126.84C678.109 130.121 676.727 133.027 674.992 135.559C673.258 138.043 671.219 140.176 668.875 141.957C666.578 143.738 664.188 145.215 661.703 146.387C659.219 147.512 656.688 148.332 654.109 148.848C651.578 149.363 649.188 149.621 646.938 149.621H639.555V182.738H621.133V149.621H613.82C611.57 149.621 609.156 149.363 606.578 148.848C604.047 148.332 601.516 147.512 598.984 146.387C596.5 145.215 594.109 143.738 591.812 141.957C589.516 140.176 587.477 138.043 585.695 135.559C583.961 133.027 582.555 130.121 581.477 126.84C580.445 123.512 579.93 119.785 579.93 115.66V81.9102H598.211V115.66C598.211 118.051 598.586 120.207 599.336 122.129C600.086 124.004 601.141 125.621 602.5 126.98C603.859 128.34 605.5 129.395 607.422 130.145C609.391 130.848 611.57 131.199 613.961 131.199H646.938C648.672 130.918 650.453 130.566 652.281 130.145C654.109 129.676 655.773 128.902 657.273 127.824C658.773 126.746 660.016 125.246 661 123.324C661.984 121.402 662.477 118.848 662.477 115.66V81.9102H680.758V115.66Z" fill="#0E0E0E"/>
<path d="M230.961 142.893V144.856C230.961 159.528 224.193 169.016 214.378 174.973C204.391 181.036 191.142 183.475 178.525 183.426C166.439 183.379 153.427 180.894 143.543 174.828C133.824 168.862 127.047 159.414 127.047 144.856V143.383C127.047 128.908 133.662 119.262 143.293 113.089C153.074 106.82 166.072 104.096 178.525 104.048C191.129 103.998 204.377 106.502 214.366 112.631C224.188 118.656 230.961 128.217 230.961 142.893Z" stroke="#0E0E0E" stroke-width="6"/>
<rect x="186.004" y="159.738" width="20" height="22" fill="#0E0E0E"/>
<rect x="206.004" y="156.738" width="10" height="21" fill="#0E0E0E"/>
<rect x="217.004" y="151.879" width="5" height="18.5305" fill="#0E0E0E"/>
<rect x="222.004" y="148.738" width="5" height="17" fill="#0E0E0E"/>
<rect x="225.004" y="143.738" width="5" height="17" fill="#0E0E0E"/>
<rect x="171.004" y="160.738" width="12" height="22" fill="#0E0E0E"/>
<rect x="139.004" y="153.738" width="4" height="22" fill="#0E0E0E"/>
<path d="M123.177 117.754L127.098 119.139V144.679L124.527 151.393C123.536 143.165 122.942 134.156 122.941 126.648C122.941 119.141 123.177 117.754 123.177 117.754Z" fill="#0E0E0E"/>
<path d="M234.898 117.754L230.976 119.139V144.679L233.547 151.393C234.539 143.165 235.133 134.156 235.133 126.648C235.133 119.141 234.898 117.754 234.898 117.754Z" fill="#0E0E0E"/>
<rect x="157.004" y="160.738" width="4" height="19" fill="#0E0E0E"/>
<rect x="150.004" y="159.188" width="4" height="20.5506" fill="#0E0E0E"/>
<rect x="164.004" y="161.738" width="6" height="19" fill="#0E0E0E"/>
<path d="M232.004 121.019V123.019C232.004 137.992 225.095 147.677 215.08 153.757C204.891 159.942 191.378 162.428 178.516 162.378C166.195 162.33 152.924 159.798 142.841 153.609C132.922 147.521 126.004 137.876 126.004 123.019V121.519C126.004 106.747 132.756 96.9011 142.584 90.6019C152.563 84.2061 165.819 81.4291 178.516 81.3796C191.366 81.3296 204.877 83.882 215.067 90.1339C225.091 96.2833 232.004 106.043 232.004 121.019Z" fill="#F28708"/>
<path d="M232.004 121.019V123.019C232.004 137.992 225.095 147.677 215.08 153.757C204.891 159.942 191.378 162.428 178.516 162.378C166.195 162.33 152.924 159.798 142.841 153.609C132.922 147.521 126.004 137.876 126.004 123.019V121.519C126.004 106.747 132.756 96.9011 142.584 90.6019C152.563 84.2061 165.819 81.4291 178.516 81.3796C191.366 81.3296 204.877 83.882 215.067 90.1339C225.091 96.2833 232.004 106.043 232.004 121.019Z" fill="url(#paint0_radial)"/>
<path d="M232.004 121.019V123.019C232.004 137.992 225.095 147.677 215.08 153.757C204.891 159.942 191.378 162.428 178.516 162.378C166.195 162.33 152.924 159.798 142.841 153.609C132.922 147.521 126.004 137.876 126.004 123.019V121.519C126.004 106.747 132.756 96.9011 142.584 90.6019C152.563 84.2061 165.819 81.4291 178.516 81.3796C191.366 81.3296 204.877 83.882 215.067 90.1339C225.091 96.2833 232.004 106.043 232.004 121.019Z" fill="url(#paint1_radial)"/>
<path d="M232.004 121.019V123.019C232.004 137.992 225.095 147.677 215.08 153.757C204.891 159.942 191.378 162.428 178.516 162.378C166.195 162.33 152.924 159.798 142.841 153.609C132.922 147.521 126.004 137.876 126.004 123.019V121.519C126.004 106.747 132.756 96.9011 142.584 90.6019C152.563 84.2061 165.819 81.4291 178.516 81.3796C191.366 81.3296 204.877 83.882 215.067 90.1339C225.091 96.2833 232.004 106.043 232.004 121.019Z" stroke="#0E0E0E" stroke-width="6"/>
<path d="M49.8497 17.7731C49.8497 19.8011 49.5876 21.6126 49.0636 23.2076C48.5623 24.8026 47.8901 26.2153 47.047 27.4458C46.2039 28.6534 45.2127 29.6902 44.0734 30.5561C42.9569 31.422 41.7948 32.1397 40.5872 32.7094C39.3795 33.2562 38.149 33.655 36.8958 33.9056C35.6654 34.1563 34.5033 34.2816 33.4095 34.2816H29.8207V50.3799H20.8658V34.2816H17.3112C16.2175 34.2816 15.044 34.1563 13.7908 33.9056C12.5603 33.655 11.3299 33.2562 10.0994 32.7094C8.89178 32.1397 7.72969 31.422 6.61317 30.5561C5.49666 29.6902 4.50547 28.6534 3.6396 27.4458C2.79651 26.2153 2.11293 24.8026 1.58885 23.2076C1.08756 21.5898 0.836914 19.7783 0.836914 17.7731V1.36717H9.72347V17.7731C9.72347 18.9352 9.90576 19.9834 10.2703 20.9176C10.6349 21.829 11.1476 22.6152 11.8084 23.2759C12.4692 23.9367 13.2667 24.4494 14.2009 24.814C15.1579 25.1558 16.2175 25.3267 17.3796 25.3267H33.4095C34.2526 25.19 35.1185 25.0191 36.0072 24.814C36.8958 24.5861 37.7047 24.2102 38.4339 23.6861C39.163 23.162 39.7669 22.4329 40.2454 21.4986C40.7239 20.5644 40.9631 19.3226 40.9631 17.7731V1.36717H49.8497V17.7731Z" fill="#F28708"/>
<path d="M110.687 30.5561C110.687 33.5411 110.174 36.2868 109.149 38.7932C108.124 41.2997 106.699 43.4644 104.877 45.2873C103.054 47.1101 100.889 48.5343 98.3826 49.5596C95.8989 50.5622 93.1873 51.0635 90.2479 51.0635H78.2169C75.2775 51.0635 72.5546 50.5622 70.0481 49.5596C67.5417 48.5343 65.377 47.1101 63.5541 45.2873C61.7312 43.4644 60.2957 41.2997 59.2475 38.7932C58.2222 36.2868 57.7095 33.5411 57.7095 30.5561V21.191C57.7095 18.2288 58.2222 15.4945 59.2475 12.9881C60.2957 10.4588 61.7312 8.29413 63.5541 6.49403C65.377 4.67115 67.5417 3.24702 70.0481 2.22165C72.5546 1.19628 75.2775 0.683594 78.2169 0.683594H90.2479C93.1873 0.683594 95.8989 1.19628 98.3826 2.22165C100.889 3.24702 103.054 4.67115 104.877 6.49403C106.699 8.29413 108.124 10.4588 109.149 12.9881C110.174 15.4945 110.687 18.2288 110.687 21.191V30.5561ZM101.8 21.191C101.8 19.4365 101.516 17.8529 100.946 16.4401C100.399 15.0046 99.613 13.7856 98.5876 12.783C97.585 11.7576 96.366 10.9715 94.9305 10.4246C93.5177 9.85497 91.9569 9.57015 90.2479 9.57015H78.2169C76.4852 9.57015 74.9016 9.85497 73.466 10.4246C72.0533 10.9715 70.8342 11.7576 69.8089 12.783C68.7835 13.7856 67.986 15.0046 67.4163 16.4401C66.8695 17.8529 66.596 19.4365 66.596 21.191V30.5561C66.596 32.3106 66.8695 33.9056 67.4163 35.3412C67.986 36.7539 68.7835 37.9729 69.8089 38.9983C70.8342 40.0009 72.0533 40.787 73.466 41.3567C74.9016 41.9035 76.4852 42.177 78.2169 42.177H90.1796C91.9113 42.177 93.4836 41.9035 94.8963 41.3567C96.3318 40.787 97.5623 40.0009 98.5876 38.9983C99.613 37.9729 100.399 36.7539 100.946 35.3412C101.516 33.9056 101.8 32.3106 101.8 30.5561V21.191Z" fill="#F28708"/>
<path d="M168.893 45.9025C168.893 46.5405 168.779 47.1329 168.551 47.6798C168.323 48.2267 168.004 48.7052 167.594 49.1153C167.184 49.5027 166.705 49.8103 166.158 50.0381C165.611 50.266 165.03 50.3799 164.415 50.3799H144.386C142.495 50.3799 140.581 50.1749 138.644 49.7647C136.707 49.3546 134.827 48.7279 133.005 47.8849C131.204 47.019 129.507 45.9253 127.912 44.6037C126.317 43.2821 124.916 41.7212 123.708 39.9211C122.523 38.0983 121.589 36.0247 120.905 33.7006C120.222 31.3536 119.88 28.7446 119.88 25.8736V1.36717H128.766V25.8736C128.766 28.38 129.108 30.4991 129.792 32.2309C130.498 33.9626 131.387 35.4095 132.458 36.5716C133.529 37.7337 134.702 38.6451 135.978 39.3059C137.254 39.9667 138.462 40.4566 139.601 40.7756C140.763 41.0946 141.777 41.2997 142.643 41.3908C143.532 41.4592 144.113 41.4934 144.386 41.4934H160.006V1.36717H168.893V45.9025Z" fill="#F28708"/>
<path d="M229.627 17.8415C229.627 19.8694 229.377 21.6809 228.875 23.2759C228.374 24.871 227.691 26.2837 226.825 27.5141C225.982 28.7218 225.002 29.7586 223.885 30.6244C222.769 31.4903 221.595 32.2081 220.365 32.7777C219.157 33.3246 217.927 33.7233 216.674 33.974C215.443 34.2246 214.281 34.35 213.187 34.35L231.746 50.3799H218.007L199.481 34.35H193.09V25.4634H213.187C214.304 25.3723 215.318 25.1444 216.229 24.7798C217.163 24.3925 217.961 23.8798 218.622 23.2418C219.305 22.6038 219.829 21.8404 220.194 20.9518C220.559 20.0403 220.741 19.0036 220.741 17.8415V12.2361C220.741 11.7348 220.672 11.3589 220.536 11.1082C220.422 10.8348 220.262 10.6411 220.057 10.5272C219.875 10.3904 219.67 10.3107 219.442 10.2879C219.237 10.2651 219.043 10.2537 218.861 10.2537H189.535V50.3799H180.649V5.84463C180.649 5.22941 180.763 4.64836 180.991 4.1015C181.218 3.55463 181.526 3.07613 181.913 2.66598C182.324 2.25583 182.802 1.93683 183.349 1.70897C183.896 1.4811 184.488 1.36717 185.126 1.36717H218.861C220.843 1.36717 222.518 1.73175 223.885 2.4609C225.252 3.16727 226.358 4.06732 227.201 5.16105C228.067 6.23199 228.682 7.39408 229.046 8.64731C229.434 9.90054 229.627 11.074 229.627 12.1678V17.8415Z" fill="#F28708"/>
<defs>
<radialGradient id="paint0_radial" cx="0" cy="0" r="1" gradientUnits="userSpaceOnUse" gradientTransform="translate(127.985 194.582) rotate(-53.9594) scale(107.188 137.989)">
<stop stop-color="#FF8B4A"/>
<stop offset="0.552083" stop-color="#FF8B4A" stop-opacity="0.49"/>
<stop offset="0.729167" stop-color="#FF8B4A" stop-opacity="0.11"/>
<stop offset="0.838542" stop-color="#FF8B4A" stop-opacity="0"/>
</radialGradient>
<radialGradient id="paint1_radial" cx="0" cy="0" r="1" gradientUnits="userSpaceOnUse" gradientTransform="translate(179.004 135.901) rotate(-74.6654) scale(125.891 162.066)">
<stop offset="0.00554914" stop-color="#FF8B4A" stop-opacity="0.11"/>
<stop offset="0.31997" stop-color="#FF8B4A" stop-opacity="0"/>
<stop offset="0.502216" stop-color="#FF8B4A" stop-opacity="0.49"/>
<stop offset="1" stop-color="#FF8B4A"/>
</radialGradient>
</defs>
</svg>
