<svg width="680" height="197" viewBox="0 0 680 197" fill="none" xmlns="http://www.w3.org/2000/svg">
<path d="M23.2031 123.113H87.3984V81.9102H105.68V182.738H87.3984V141.535H23.2031V182.738H4.92188V81.9102H23.2031V123.113Z" fill="#F3F3F3"/>
<path d="M341.297 182.738H275.344C273.656 182.738 271.828 182.551 269.859 182.176C267.938 181.754 266.016 181.121 264.094 180.277C262.219 179.434 260.414 178.355 258.68 177.043C256.945 175.684 255.398 174.066 254.039 172.191C252.727 170.27 251.672 168.066 250.875 165.582C250.078 163.051 249.68 160.215 249.68 157.074V107.574C249.68 105.887 249.867 104.082 250.242 102.16C250.664 100.191 251.297 98.2695 252.141 96.3945C252.984 94.4727 254.086 92.6445 255.445 90.9102C256.805 89.1758 258.422 87.6523 260.297 86.3398C262.219 84.9805 264.422 83.9023 266.906 83.1055C269.391 82.3086 272.203 81.9102 275.344 81.9102H341.297V100.191H275.344C272.953 100.191 271.125 100.824 269.859 102.09C268.594 103.355 267.961 105.23 267.961 107.715V157.074C267.961 159.418 268.594 161.246 269.859 162.559C271.172 163.824 273 164.457 275.344 164.457H341.297V182.738Z" fill="#F3F3F3"/>
<path d="M464.273 182.738H438.328L397.195 141.535H384.328V123.113H397.195L438.328 81.9102H464.273L412.453 132.324L464.273 182.738ZM377.016 182.738H358.734V81.9102H377.016V182.738Z" fill="#F3F3F3"/>
<path d="M557.93 141.535H500.203V123.113H557.93V141.535ZM566.156 182.738H500.203C497.672 182.738 494.906 182.293 491.906 181.402C488.906 180.512 486.117 179.059 483.539 177.043C481.008 174.98 478.875 172.332 477.141 169.098C475.453 165.816 474.609 161.809 474.609 157.074V91.1211C474.609 89.8555 474.844 88.6602 475.312 87.5352C475.781 86.4102 476.414 85.4258 477.211 84.582C478.055 83.7383 479.039 83.082 480.164 82.6133C481.289 82.1445 482.508 81.9102 483.82 81.9102H566.156V100.191H492.891V157.074C492.891 159.465 493.523 161.293 494.789 162.559C496.055 163.824 497.906 164.457 500.344 164.457H566.156V182.738Z" fill="#F3F3F3"/>
<path d="M679.922 115.66C679.922 119.832 679.383 123.559 678.305 126.84C677.273 130.121 675.891 133.027 674.156 135.559C672.422 138.043 670.383 140.176 668.039 141.957C665.742 143.738 663.352 145.215 660.867 146.387C658.383 147.512 655.852 148.332 653.273 148.848C650.742 149.363 648.352 149.621 646.102 149.621H638.719V182.738H620.297V149.621H612.984C610.734 149.621 608.32 149.363 605.742 148.848C603.211 148.332 600.68 147.512 598.148 146.387C595.664 145.215 593.273 143.738 590.977 141.957C588.68 140.176 586.641 138.043 584.859 135.559C583.125 133.027 581.719 130.121 580.641 126.84C579.609 123.512 579.094 119.785 579.094 115.66V81.9102H597.375V115.66C597.375 118.051 597.75 120.207 598.5 122.129C599.25 124.004 600.305 125.621 601.664 126.98C603.023 128.34 604.664 129.395 606.586 130.145C608.555 130.848 610.734 131.199 613.125 131.199H646.102C647.836 130.918 649.617 130.566 651.445 130.145C653.273 129.676 654.938 128.902 656.438 127.824C657.938 126.746 659.18 125.246 660.164 123.324C661.148 121.402 661.641 118.848 661.641 115.66V81.9102H679.922V115.66Z" fill="#F3F3F3"/>
<path d="M230.125 142.893V144.856C230.125 159.528 223.357 169.016 213.542 174.973C203.555 181.036 190.306 183.475 177.689 183.426C165.603 183.379 152.591 180.894 142.708 174.828C132.988 168.862 126.211 159.414 126.211 144.856V143.383C126.211 128.908 132.826 119.262 142.457 113.089C152.238 106.82 165.236 104.096 177.689 104.048C190.293 103.998 203.541 106.502 213.53 112.631C223.352 118.656 230.125 128.217 230.125 142.893Z" stroke="#F3F3F3" stroke-width="6"/>
<rect x="185.168" y="159.738" width="20" height="22" fill="#F3F3F3"/>
<rect x="205.168" y="156.738" width="10" height="21" fill="#F3F3F3"/>
<rect x="216.168" y="151.879" width="5" height="18.5305" fill="#F3F3F3"/>
<rect x="221.168" y="148.738" width="5" height="17" fill="#F3F3F3"/>
<rect x="224.168" y="143.738" width="5" height="17" fill="#F3F3F3"/>
<rect x="170.168" y="160.738" width="12" height="22" fill="#F3F3F3"/>
<rect x="138.168" y="153.738" width="4" height="22" fill="#F3F3F3"/>
<path d="M122.341 117.754L126.263 119.139V144.679L123.692 151.393C122.7 143.165 122.106 134.156 122.105 126.648C122.105 119.141 122.341 117.754 122.341 117.754Z" fill="#F3F3F3"/>
<path d="M234.062 117.754L230.14 119.139V144.679L232.711 151.393C233.703 143.165 234.297 134.156 234.297 126.648C234.297 119.141 234.062 117.754 234.062 117.754Z" fill="#F3F3F3"/>
<rect x="156.168" y="160.738" width="4" height="19" fill="#F3F3F3"/>
<rect x="149.168" y="159.188" width="4" height="20.5506" fill="#F3F3F3"/>
<rect x="163.168" y="161.738" width="6" height="19" fill="#F3F3F3"/>
<path d="M231.168 121.019V123.019C231.168 137.992 224.259 147.677 214.244 153.757C204.055 159.942 190.542 162.428 177.68 162.378C165.359 162.33 152.088 159.798 142.005 153.609C132.086 147.521 125.168 137.876 125.168 123.019V121.519C125.168 106.747 131.92 96.9011 141.748 90.6019C151.727 84.2061 164.984 81.4291 177.68 81.3796C190.53 81.3296 204.041 83.882 214.231 90.1339C224.255 96.2833 231.168 106.043 231.168 121.019Z" fill="#F28708"/>
<path d="M231.168 121.019V123.019C231.168 137.992 224.259 147.677 214.244 153.757C204.055 159.942 190.542 162.428 177.68 162.378C165.359 162.33 152.088 159.798 142.005 153.609C132.086 147.521 125.168 137.876 125.168 123.019V121.519C125.168 106.747 131.92 96.9011 141.748 90.6019C151.727 84.2061 164.984 81.4291 177.68 81.3796C190.53 81.3296 204.041 83.882 214.231 90.1339C224.255 96.2833 231.168 106.043 231.168 121.019Z" fill="url(#paint0_radial)"/>
<path d="M231.168 121.019V123.019C231.168 137.992 224.259 147.677 214.244 153.757C204.055 159.942 190.542 162.428 177.68 162.378C165.359 162.33 152.088 159.798 142.005 153.609C132.086 147.521 125.168 137.876 125.168 123.019V121.519C125.168 106.747 131.92 96.9011 141.748 90.6019C151.727 84.2061 164.984 81.4291 177.68 81.3796C190.53 81.3296 204.041 83.882 214.231 90.1339C224.255 96.2833 231.168 106.043 231.168 121.019Z" fill="url(#paint1_radial)"/>
<path d="M231.168 121.019V123.019C231.168 137.992 224.259 147.677 214.244 153.757C204.055 159.942 190.542 162.428 177.68 162.378C165.359 162.33 152.088 159.798 142.005 153.609C132.086 147.521 125.168 137.876 125.168 123.019V121.519C125.168 106.747 131.92 96.9011 141.748 90.6019C151.727 84.2061 164.984 81.4291 177.68 81.3796C190.53 81.3296 204.041 83.882 214.231 90.1339C224.255 96.2833 231.168 106.043 231.168 121.019Z" stroke="#F3F3F3" stroke-width="6"/>
<path d="M49.0128 17.7731C49.0128 19.8011 48.7507 21.6126 48.2266 23.2076C47.7253 24.8026 47.0532 26.2153 46.2101 27.4458C45.367 28.6534 44.3758 29.6902 43.2365 30.5561C42.12 31.422 40.9579 32.1397 39.7502 32.7094C38.5426 33.2562 37.3121 33.655 36.0589 33.9056C34.8285 34.1563 33.6664 34.2816 32.5726 34.2816H28.9838V50.3799H20.0289V34.2816H16.4743C15.3806 34.2816 14.2071 34.1563 12.9539 33.9056C11.7234 33.655 10.493 33.2562 9.26252 32.7094C8.05486 32.1397 6.89278 31.422 5.77626 30.5561C4.65974 29.6902 3.66855 28.6534 2.80268 27.4458C1.9596 26.2153 1.27602 24.8026 0.751939 23.2076C0.250646 21.5898 0 19.7783 0 17.7731V1.36717H8.88655V17.7731C8.88655 18.9352 9.06884 19.9834 9.43342 20.9176C9.79799 21.829 10.3107 22.6152 10.9715 23.2759C11.6323 23.9367 12.4298 24.4494 13.364 24.814C14.321 25.1558 15.3806 25.3267 16.5427 25.3267H32.5726C33.4157 25.19 34.2816 25.0191 35.1702 24.814C36.0589 24.5861 36.8678 24.2102 37.597 23.6861C38.3261 23.162 38.9299 22.4329 39.4084 21.4986C39.887 20.5644 40.1262 19.3226 40.1262 17.7731V1.36717H49.0128V17.7731Z" fill="#F28708"/>
<path d="M109.85 30.5561C109.85 33.5411 109.337 36.2868 108.312 38.7932C107.287 41.2997 105.863 43.4644 104.04 45.2873C102.217 47.1101 100.052 48.5343 97.5456 49.5596C95.062 50.5622 92.3504 51.0635 89.411 51.0635H77.38C74.4406 51.0635 71.7177 50.5622 69.2112 49.5596C66.7047 48.5343 64.5401 47.1101 62.7172 45.2873C60.8943 43.4644 59.4588 41.2997 58.4106 38.7932C57.3853 36.2868 56.8726 33.5411 56.8726 30.5561V21.191C56.8726 18.2288 57.3853 15.4945 58.4106 12.9881C59.4588 10.4588 60.8943 8.29413 62.7172 6.49403C64.5401 4.67115 66.7047 3.24702 69.2112 2.22165C71.7177 1.19628 74.4406 0.683594 77.38 0.683594H89.411C92.3504 0.683594 95.062 1.19628 97.5456 2.22165C100.052 3.24702 102.217 4.67115 104.04 6.49403C105.863 8.29413 107.287 10.4588 108.312 12.9881C109.337 15.4945 109.85 18.2288 109.85 21.191V30.5561ZM100.964 21.191C100.964 19.4365 100.679 17.8529 100.109 16.4401C99.5622 15.0046 98.7761 13.7856 97.7507 12.783C96.7481 11.7576 95.5291 10.9715 94.0936 10.4246C92.6808 9.85497 91.12 9.57015 89.411 9.57015H77.38C75.6483 9.57015 74.0646 9.85497 72.6291 10.4246C71.2164 10.9715 69.9973 11.7576 68.972 12.783C67.9466 13.7856 67.1491 15.0046 66.5794 16.4401C66.0326 17.8529 65.7591 19.4365 65.7591 21.191V30.5561C65.7591 32.3106 66.0326 33.9056 66.5794 35.3412C67.1491 36.7539 67.9466 37.9729 68.972 38.9983C69.9973 40.0009 71.2164 40.787 72.6291 41.3567C74.0646 41.9035 75.6483 42.177 77.38 42.177H89.3427C91.0744 42.177 92.6466 41.9035 94.0594 41.3567C95.4949 40.787 96.7253 40.0009 97.7507 38.9983C98.7761 37.9729 99.5622 36.7539 100.109 35.3412C100.679 33.9056 100.964 32.3106 100.964 30.5561V21.191Z" fill="#F28708"/>
<path d="M168.056 45.9025C168.056 46.5405 167.942 47.1329 167.714 47.6798C167.486 48.2267 167.167 48.7052 166.757 49.1153C166.347 49.5027 165.868 49.8103 165.321 50.0381C164.774 50.266 164.193 50.3799 163.578 50.3799H143.549C141.658 50.3799 139.744 50.1749 137.807 49.7647C135.87 49.3546 133.991 48.7279 132.168 47.8849C130.368 47.019 128.67 45.9253 127.075 44.6037C125.48 43.2821 124.079 41.7212 122.871 39.9211C121.686 38.0983 120.752 36.0247 120.068 33.7006C119.385 31.3536 119.043 28.7446 119.043 25.8736V1.36717H127.929V25.8736C127.929 28.38 128.271 30.4991 128.955 32.2309C129.661 33.9626 130.55 35.4095 131.621 36.5716C132.692 37.7337 133.865 38.6451 135.141 39.3059C136.417 39.9667 137.625 40.4566 138.764 40.7756C139.926 41.0946 140.94 41.2997 141.806 41.3908C142.695 41.4592 143.276 41.4934 143.549 41.4934H159.169V1.36717H168.056V45.9025Z" fill="#F28708"/>
<path d="M228.79 17.8415C228.79 19.8694 228.54 21.6809 228.039 23.2759C227.537 24.871 226.854 26.2837 225.988 27.5141C225.145 28.7218 224.165 29.7586 223.048 30.6244C221.932 31.4903 220.758 32.2081 219.528 32.7777C218.32 33.3246 217.09 33.7233 215.837 33.974C214.606 34.2246 213.444 34.35 212.35 34.35L230.91 50.3799H217.17L198.645 34.35H192.253V25.4634H212.35C213.467 25.3723 214.481 25.1444 215.392 24.7798C216.327 24.3925 217.124 23.8798 217.785 23.2418C218.468 22.6038 218.992 21.8404 219.357 20.9518C219.722 20.0403 219.904 19.0036 219.904 17.8415V12.2361C219.904 11.7348 219.836 11.3589 219.699 11.1082C219.585 10.8348 219.425 10.6411 219.22 10.5272C219.038 10.3904 218.833 10.3107 218.605 10.2879C218.4 10.2651 218.206 10.2537 218.024 10.2537H188.698V50.3799H179.812V5.84463C179.812 5.22941 179.926 4.64836 180.154 4.1015C180.382 3.55463 180.689 3.07613 181.077 2.66598C181.487 2.25583 181.965 1.93683 182.512 1.70897C183.059 1.4811 183.651 1.36717 184.289 1.36717H218.024C220.006 1.36717 221.681 1.73175 223.048 2.4609C224.416 3.16727 225.521 4.06732 226.364 5.16105C227.23 6.23199 227.845 7.39408 228.209 8.64731C228.597 9.90054 228.79 11.074 228.79 12.1678V17.8415Z" fill="#F28708"/>
<defs>
<radialGradient id="paint0_radial" cx="0" cy="0" r="1" gradientUnits="userSpaceOnUse" gradientTransform="translate(127.149 194.582) rotate(-53.9594) scale(107.188 137.989)">
<stop stop-color="#FF8B4A"/>
<stop offset="0.552083" stop-color="#FF8B4A" stop-opacity="0.49"/>
<stop offset="0.729167" stop-color="#FF8B4A" stop-opacity="0.11"/>
<stop offset="0.838542" stop-color="#FF8B4A" stop-opacity="0"/>
</radialGradient>
<radialGradient id="paint1_radial" cx="0" cy="0" r="1" gradientUnits="userSpaceOnUse" gradientTransform="translate(178.168 135.901) rotate(-74.6654) scale(125.891 162.066)">
<stop offset="0.00554914" stop-color="#FF8B4A" stop-opacity="0.11"/>
<stop offset="0.31997" stop-color="#FF8B4A" stop-opacity="0"/>
<stop offset="0.502216" stop-color="#FF8B4A" stop-opacity="0.49"/>
<stop offset="1" stop-color="#FF8B4A"/>
</radialGradient>
</defs>
</svg>
