<?xml version="1.0" standalone="no"?>
<!DOCTYPE svg PUBLIC "-//W3C//DTD SVG 20010904//EN"
 "http://www.w3.org/TR/2001/REC-SVG-20010904/DTD/svg10.dtd">
<svg version="1.0" xmlns="http://www.w3.org/2000/svg"
 width="220.000000pt" height="220.000000pt" viewBox="0 0 220.000000 220.000000"
 preserveAspectRatio="xMidYMid meet">
<metadata>
Created by potrace 1.11, written by Peter Selinger 2001-2013
</metadata>
<g transform="translate(0.000000,220.000000) scale(0.100000,-0.100000)"
fill="#000000" stroke="none">
<path d="M2 1383 c3 -215 4 -219 31 -272 57 -111 157 -172 295 -179 l82 -5 0
-163 0 -164 90 0 90 0 0 164 0 163 83 5 c127 7 220 58 279 153 40 67 47 109
48 318 l1 197 -91 0 -90 0 -1 -172 c0 -95 -2 -186 -4 -201 -6 -44 -32 -77 -78
-98 -38 -16 -65 -18 -252 -16 -200 2 -212 3 -241 24 -47 34 -65 90 -64 197 1
50 1 130 1 179 l-1 87 -91 0 -91 0 4 -217z"/>
<path d="M1194 1100 l0 -500 90 0 91 0 0 203 0 202 318 3 317 2 0 -205 0 -205
90 0 c86 0 90 1 91 23 0 12 1 236 1 497 l1 475 -92 3 -91 3 0 -206 0 -205
-315 0 c-245 0 -315 3 -316 13 -1 6 -2 98 -3 202 l-1 190 -90 3 -91 3 0 -501z"/>
</g>
</svg>
