<?xml version="1.0" standalone="no"?>
<!DOCTYPE svg PUBLIC "-//W3C//DTD SVG 20010904//EN"
 "http://www.w3.org/TR/2001/REC-SVG-20010904/DTD/svg10.dtd">
<svg version="1.0" xmlns="http://www.w3.org/2000/svg"
 width="210.000000pt" height="210.000000pt" viewBox="0 0 210.000000 210.000000"
 preserveAspectRatio="xMidYMid meet">
<metadata>
Created by potrace 1.11, written by Peter Selinger 2001-2013
</metadata>
<g transform="translate(0.000000,210.000000) scale(0.100000,-0.100000)"
fill="#000000" stroke="none">
<path d="M0 1346 c2 -255 15 -307 97 -390 60 -61 166 -104 260 -106 22 0 22
-3 22 -122 -1 -68 -1 -135 0 -150 l1 -28 123 0 122 0 -2 150 c-1 133 1 150 15
151 80 3 147 22 203 58 64 40 97 77 127 141 25 53 26 62 30 278 l4 222 -124 0
-123 0 0 -182 c1 -101 -3 -195 -8 -210 -16 -49 -55 -58 -252 -58 -190 0 -222
7 -242 54 -5 12 -9 105 -8 209 l0 187 -123 0 -123 0 1 -204z"/>
<path d="M1100 1050 l0 -500 123 0 122 0 0 187 0 188 250 2 c137 0 252 -3 255
-8 3 -4 5 -89 5 -189 l-1 -180 123 0 123 0 0 500 0 500 -123 0 -122 0 0 -187
-1 -188 -254 0 -255 0 0 188 0 187 -122 0 -123 0 0 -500z"/>
</g>
</svg>
